<svg width="294" height="356" viewBox="0 0 294 356" fill="none" xmlns="http://www.w3.org/2000/svg">
<mask id="path-1-outside-1_346_658" maskUnits="userSpaceOnUse" x="0" y="0" width="294" height="356" fill="black">
<rect fill="white" width="294" height="356"/>
<path fill-rule="evenodd" clip-rule="evenodd" d="M2 11C2 6.02944 6.02944 2 11 2H283C287.971 2 292 6.02944 292 11V93.0145C291.86 93.0049 291.719 93 291.577 93C287.608 93 284.391 96.8056 284.391 101.5C284.391 106.194 287.608 110 291.577 110C291.719 110 291.86 109.995 292 109.986V345C292 349.971 287.971 354 283 354H11C6.02943 354 2 349.971 2 345V109.986C5.77227 109.727 8.76385 106.027 8.76385 101.5C8.76385 96.9734 5.77227 93.2733 2 93.0145V11Z"/>
</mask>
<path fill-rule="evenodd" clip-rule="evenodd" d="M2 11C2 6.02944 6.02944 2 11 2H283C287.971 2 292 6.02944 292 11V93.0145C291.86 93.0049 291.719 93 291.577 93C287.608 93 284.391 96.8056 284.391 101.5C284.391 106.194 287.608 110 291.577 110C291.719 110 291.86 109.995 292 109.986V345C292 349.971 287.971 354 283 354H11C6.02943 354 2 349.971 2 345V109.986C5.77227 109.727 8.76385 106.027 8.76385 101.5C8.76385 96.9734 5.77227 93.2733 2 93.0145V11Z" fill="white"/>
<path d="M292 93.0145L291.897 94.5109L293.5 94.6209V93.0145H292ZM292 109.986H293.5V108.379L291.897 108.489L292 109.986ZM2 109.986L1.89733 108.489L0.5 108.585V109.986H2ZM2 93.0145H0.5V94.4151L1.89733 94.5109L2 93.0145ZM11 0.5C5.20101 0.5 0.5 5.20101 0.5 11H3.5C3.5 6.85787 6.85786 3.5 11 3.5V0.5ZM283 0.5H11V3.5H283V0.5ZM293.5 11C293.5 5.20101 288.799 0.5 283 0.5V3.5C287.142 3.5 290.5 6.85786 290.5 11H293.5ZM293.5 93.0145V11H290.5V93.0145H293.5ZM291.577 94.5C291.685 94.5 291.792 94.5037 291.897 94.5109L292.103 91.518C291.929 91.506 291.753 91.5 291.577 91.5V94.5ZM285.891 101.5C285.891 97.3882 288.663 94.5 291.577 94.5V91.5C286.554 91.5 282.891 96.223 282.891 101.5H285.891ZM291.577 108.5C288.663 108.5 285.891 105.612 285.891 101.5H282.891C282.891 106.777 286.554 111.5 291.577 111.5V108.5ZM291.897 108.489C291.792 108.496 291.685 108.5 291.577 108.5V111.5C291.753 111.5 291.929 111.494 292.103 111.482L291.897 108.489ZM293.5 345V109.986H290.5V345H293.5ZM283 355.5C288.799 355.5 293.5 350.799 293.5 345H290.5C290.5 349.142 287.142 352.5 283 352.5V355.5ZM11 355.5H283V352.5H11V355.5ZM0.5 345C0.5 350.799 5.201 355.5 11 355.5V352.5C6.85786 352.5 3.5 349.142 3.5 345H0.5ZM0.5 109.986V345H3.5V109.986H0.5ZM7.26385 101.5C7.26385 105.454 4.68388 108.298 1.89733 108.489L2.10267 111.482C6.86067 111.156 10.2638 106.599 10.2638 101.5H7.26385ZM1.89733 94.5109C4.68388 94.7021 7.26385 97.5456 7.26385 101.5H10.2638C10.2638 96.4013 6.86067 91.8444 2.10267 91.518L1.89733 94.5109ZM0.5 11V93.0145H3.5V11H0.5Z" fill="#E6E6EB" mask="url(#path-1-outside-1_346_658)"/>
</svg>
