<svg width="15" height="16" viewBox="0 0 15 16" fill="none" xmlns="http://www.w3.org/2000/svg">
<path d="M12.0328 4.43262H5.94542C5.75342 4.43311 5.56341 4.47146 5.38625 4.54546C5.20909 4.61946 5.04826 4.72766 4.91296 4.86388C4.77766 5.00009 4.67054 5.16165 4.59773 5.3393C4.52493 5.51696 4.48786 5.70722 4.48866 5.89921V13.5334C4.48866 14.3431 5.14098 15 5.94542 15H12.0328C12.2248 14.9995 12.4148 14.9611 12.5919 14.8871C12.7691 14.8131 12.9299 14.7049 13.0652 14.5687C13.2005 14.4325 13.3076 14.2709 13.3804 14.0933C13.4533 13.9156 13.4903 13.7254 13.4895 13.5334V5.89921C13.4895 5.08948 12.8372 4.43262 12.0328 4.43262Z" stroke="#7B7C87" stroke-width="1.13514" stroke-linecap="round" stroke-linejoin="round"/>
<path d="M10.0009 4.43265V2.46659C10.0009 2.07762 9.84724 1.70454 9.57405 1.42984C9.43918 1.29384 9.27875 1.18585 9.102 1.11209C8.92524 1.03832 8.73564 1.00023 8.54411 1H2.45676C2.07081 1 1.7 1.15438 1.42757 1.42984C1.15417 1.70569 1.00054 2.07821 1 2.46659V10.1008C1 10.4897 1.15362 10.8628 1.42681 11.1375C1.7 11.4122 2.07005 11.5674 2.45676 11.5674H4.48865" stroke="#7B7C87" stroke-width="1.13514" stroke-linecap="round" stroke-linejoin="round"/>
</svg>
