<svg width="16" height="14" viewBox="0 0 16 14" fill="none" xmlns="http://www.w3.org/2000/svg">
<path d="M2.22504 7.57623V9.72665C2.22504 10.2853 2.53115 10.8057 3.02093 11.0735L6.8473 13.1627C7.30647 13.4153 7.85747 13.4153 8.31663 13.1627L12.143 11.0735C12.6328 10.8057 12.9389 10.2853 12.9389 9.72665V7.57623L8.31663 10.1016C7.85747 10.3542 7.30647 10.3542 6.8473 10.1016L2.22504 7.57623ZM6.8473 0.183666L0.39603 3.70393C-0.13201 3.99474 -0.13201 4.76002 0.39603 5.05082L6.8473 8.57109C7.30647 8.82363 7.85747 8.82363 8.31663 8.57109L14.4694 5.21153V9.73431C14.4694 10.1552 14.8138 10.4996 15.2347 10.4996C15.6556 10.4996 16 10.1552 16 9.73431V4.82889C16 4.54574 15.8469 4.2932 15.6021 4.15545L8.31663 0.183666C8.09053 0.0630777 7.83822 0 7.58197 0C7.32572 0 7.07341 0.0630777 6.8473 0.183666Z" fill="#7B7C87"/>
</svg>
