<svg width="44" height="44" viewBox="0 0 44 44" fill="none" xmlns="http://www.w3.org/2000/svg">
<path d="M16.2598 22.0919L25.5944 30.7742C25.7502 30.9191 25.9571 31 26.1723 31C26.3875 31 26.5944 30.9191 26.7501 30.7742L26.7602 30.7644C26.836 30.6941 26.8963 30.6095 26.9375 30.5158C26.9787 30.4221 27 30.3211 27 30.2191C27 30.1171 26.9787 30.0161 26.9375 29.9224C26.8963 29.8286 26.836 29.7441 26.7602 29.6738L17.9699 21.4984L26.7602 13.3262C26.836 13.2559 26.8963 13.1714 26.9375 13.0776C26.9787 12.9839 27 12.8829 27 12.7809C27 12.6789 26.9787 12.5779 26.9375 12.4842C26.8963 12.3905 26.836 12.3059 26.7602 12.2356L26.7501 12.2258C26.5944 12.0809 26.3875 12 26.1723 12C25.9571 12 25.7502 12.0809 25.5944 12.2258L16.2598 20.9081C16.1777 20.9845 16.1123 21.0763 16.0677 21.178C16.023 21.2798 16 21.3893 16 21.5C16 21.6107 16.023 21.7202 16.0677 21.822C16.1123 21.9237 16.1777 22.0155 16.2598 22.0919Z" fill="#171717"/>
</svg>
