<svg width="104" height="125" viewBox="0 0 104 125" fill="none" xmlns="http://www.w3.org/2000/svg">
<path d="M8.12821 25.1931C9.03939 25.1931 9.70725 25.0723 10.5563 24.4088L30.8793 9.15993C31.9122 8.43992 32.4584 7.47304 32.4584 6.44959C32.4584 5.18442 31.85 4.16097 30.8198 3.1941C28.5159 1.14463 24.3871 0.000316088 20.7502 0.000316088C18.5074 -0.0133361 16.2842 0.415381 14.2094 1.26162C12.1346 2.10785 10.2496 3.35477 8.66355 4.9301C7.0775 6.50542 5.822 8.37781 4.96982 10.4387C4.11764 12.4997 3.68573 14.7081 3.69913 16.9361C3.69913 19.1656 4.06412 21.395 4.66985 22.7811C5.33771 24.288 6.67342 25.1931 8.12821 25.1931ZM107.81 25.1931C109.327 25.1931 110.541 24.2288 111.268 22.7811C111.936 21.4568 112.298 19.1656 112.298 16.9361C112.298 7.53476 104.714 0.000316088 95.1903 0.000316088C91.6102 0.000316088 87.4866 1.14463 85.1802 3.1941C84.1473 4.1584 83.5416 5.18442 83.5416 6.44959C83.5416 7.47304 84.0878 8.43735 85.0585 9.15993L105.384 24.4088C106.233 25.0723 106.901 25.1931 107.81 25.1931ZM7.21703 123.251C7.65716 123.698 8.18348 124.051 8.76444 124.291C9.34541 124.53 9.96906 124.651 10.598 124.645C11.227 124.639 11.8483 124.507 12.4247 124.257C13.0011 124.007 13.5208 123.644 13.9525 123.19L23.5381 113.727C33.514 121.053 45.5939 125.005 58 125C70.9222 125 82.8142 120.783 92.4593 113.732L102.047 123.195C103.927 125.123 106.901 125.123 108.721 123.254C110.481 121.505 110.541 118.553 108.659 116.743L99.4381 107.643C110.073 96.9084 116.023 82.4444 116 67.3834C116 35.5588 90.0338 9.70251 58 9.70251C25.9662 9.70251 3.67865e-05 35.5588 3.67865e-05 67.3808C-0.0170343 82.4292 5.90798 96.8839 16.5023 107.64L7.27915 116.743C5.45937 118.551 5.45937 121.5 7.21962 123.249M58 114.693C31.6688 114.693 10.313 93.5379 10.313 67.3808C10.313 41.2854 31.6688 20.0707 58 20.0707C84.269 20.0707 105.565 41.2854 105.565 67.3808C105.565 93.5379 84.269 114.693 58 114.693ZM30.3953 74.0127H57.9379C60.3064 74.0127 62.1857 72.2024 62.1857 69.852V33.3293C62.1892 32.7745 62.0817 32.2246 61.8696 31.7114C61.6575 31.1982 61.3449 30.7319 60.95 30.3396C60.5551 29.9473 60.0857 29.6368 59.5691 29.4261C59.0525 29.2154 58.4989 29.1086 57.9404 29.1121C55.5719 29.1121 53.7521 30.9789 53.7521 33.3293V65.6322H30.3953C27.9672 65.6322 26.15 67.5017 26.15 69.8494C26.15 72.2024 27.9672 74.0127 30.3953 74.0127Z" fill="#F3F3F6"/>
</svg>
