<svg width="14" height="17" viewBox="0 0 14 17" fill="none" xmlns="http://www.w3.org/2000/svg">
<path fill-rule="evenodd" clip-rule="evenodd" d="M0 6.95628C0 3.11542 3.135 0 7 0C10.865 0 14 3.11542 14 6.95628C14 11.11 9.56303 14.8001 7.75407 16.132C7.30039 16.466 6.69961 16.466 6.24593 16.132C4.43697 14.8001 0 11.11 0 6.95628ZM7 9.32282C8.28866 9.32282 9.33333 8.27932 9.33333 6.99211C9.33333 5.7049 8.28866 4.66141 7 4.66141C5.71134 4.66141 4.66667 5.7049 4.66667 6.99211C4.66667 8.27932 5.71134 9.32282 7 9.32282Z" fill="#7B7C87"/>
</svg>
