<svg width="16" height="16" viewBox="0 0 16 16" fill="none" xmlns="http://www.w3.org/2000/svg">
<path d="M8 0C3.58171 0 0 3.58171 0 8C0 12.4183 3.58171 16 8 16C12.4183 16 16 12.4183 16 8C16 3.58171 12.4183 0 8 0ZM8 6.28571C8.15155 6.28571 8.2969 6.34592 8.40406 6.45308C8.51123 6.56025 8.57143 6.70559 8.57143 6.85714V12C8.57143 12.1516 8.51123 12.2969 8.40406 12.4041C8.2969 12.5112 8.15155 12.5714 8 12.5714C7.84845 12.5714 7.7031 12.5112 7.59594 12.4041C7.48878 12.2969 7.42857 12.1516 7.42857 12V6.85714C7.42857 6.70559 7.48878 6.56025 7.59594 6.45308C7.7031 6.34592 7.84845 6.28571 8 6.28571ZM8 5.14286C7.77267 5.14286 7.55465 5.05255 7.39391 4.89181C7.23316 4.73106 7.14286 4.51304 7.14286 4.28571C7.14286 4.05839 7.23316 3.84037 7.39391 3.67962C7.55465 3.51888 7.77267 3.42857 8 3.42857C8.22733 3.42857 8.44535 3.51888 8.60609 3.67962C8.76684 3.84037 8.85714 4.05839 8.85714 4.28571C8.85714 4.51304 8.76684 4.73106 8.60609 4.89181C8.44535 5.05255 8.22733 5.14286 8 5.14286Z" fill="#7B7C87"/>
</svg>
