<svg width="180" height="180" viewBox="0 0 180 180" fill="none" xmlns="http://www.w3.org/2000/svg">
<mask id="path-1-inside-1_385_301" fill="white">
<path fill-rule="evenodd" clip-rule="evenodd" d="M87.5475 65.4034L76.6501 63.2331C69.5696 61.8229 62.6865 66.4196 61.2763 73.5001L58.723 86.3207C50.5803 84.699 42.6648 89.9852 41.0431 98.1278C39.4214 106.27 44.7076 114.186 52.8502 115.808L50.2968 128.628C48.8866 135.708 53.4834 142.592 60.5639 144.002L115.692 154.981C122.772 156.391 129.655 151.795 131.066 144.714L133.619 131.894C125.476 130.272 120.19 122.356 121.812 114.214C123.434 106.071 131.349 100.785 139.492 102.407L142.045 89.5864C143.455 82.5058 138.859 75.6228 131.778 74.2126L117.035 71.2762C118.656 63.1336 113.37 55.2182 105.227 53.5965C97.0848 51.9748 89.1693 57.2609 87.5475 65.4034Z"/>
</mask>
<path fill-rule="evenodd" clip-rule="evenodd" d="M87.5475 65.4034L76.6501 63.2331C69.5696 61.8229 62.6865 66.4196 61.2763 73.5001L58.723 86.3207C50.5803 84.699 42.6648 89.9852 41.0431 98.1278C39.4214 106.27 44.7076 114.186 52.8502 115.808L50.2968 128.628C48.8866 135.708 53.4834 142.592 60.5639 144.002L115.692 154.981C122.772 156.391 129.655 151.795 131.066 144.714L133.619 131.894C125.476 130.272 120.19 122.356 121.812 114.214C123.434 106.071 131.349 100.785 139.492 102.407L142.045 89.5864C143.455 82.5058 138.859 75.6228 131.778 74.2126L117.035 71.2762C118.656 63.1336 113.37 55.2182 105.227 53.5965C97.0848 51.9748 89.1693 57.2609 87.5475 65.4034Z" fill="#F3F3F6"/>
<path d="M87.5475 65.4034L87.1645 67.3265L89.0876 67.7095L89.4706 65.7865L87.5475 65.4034ZM61.2763 73.5001L59.3533 73.1171L59.3533 73.1171L61.2763 73.5001ZM58.723 86.3207L58.3399 88.2438L60.263 88.6268L60.646 86.7037L58.723 86.3207ZM52.8502 115.808L54.7733 116.191L55.1563 114.268L53.2332 113.885L52.8502 115.808ZM50.2968 128.628L48.3738 128.245L50.2968 128.628ZM60.5639 144.002L60.1809 145.925L60.5639 144.002ZM115.692 154.981L116.075 153.058L115.692 154.981ZM131.066 144.714L129.142 144.331L131.066 144.714ZM133.619 131.894L135.542 132.277L135.925 130.354L134.002 129.971L133.619 131.894ZM139.492 102.407L139.109 104.33L141.032 104.713L141.415 102.79L139.492 102.407ZM142.045 89.5864L140.122 89.2034L140.122 89.2034L142.045 89.5864ZM131.778 74.2126L131.395 76.1356L131.778 74.2126ZM117.035 71.2762L115.111 70.8932L114.728 72.8163L116.652 73.1993L117.035 71.2762ZM87.9305 63.4804L77.0331 61.31L76.2671 65.1561L87.1645 67.3265L87.9305 63.4804ZM77.0331 61.31C68.8905 59.6883 60.975 64.9745 59.3533 73.1171L63.1994 73.8831C64.3981 67.8647 70.2487 63.9575 76.2671 65.1561L77.0331 61.31ZM59.3533 73.1171L56.7999 85.9377L60.646 86.7037L63.1994 73.8831L59.3533 73.1171ZM59.106 84.3976C49.9013 82.5644 40.9533 88.5401 39.12 97.7448L42.9661 98.5108C44.3763 91.4303 51.2594 86.8336 58.3399 88.2438L59.106 84.3976ZM39.12 97.7448C37.2868 106.95 43.2625 115.898 52.4672 117.731L53.2332 113.885C46.1527 112.474 41.556 105.591 42.9661 98.5108L39.12 97.7448ZM50.9271 115.425L48.3738 128.245L52.2199 129.011L54.7733 116.191L50.9271 115.425ZM48.3738 128.245C46.752 136.388 52.0383 144.303 60.1809 145.925L60.9469 142.079C54.9285 140.88 51.0212 135.029 52.2199 129.011L48.3738 128.245ZM60.1809 145.925L115.309 156.904L116.075 153.058L60.9469 142.079L60.1809 145.925ZM115.309 156.904C123.451 158.526 131.367 153.24 132.989 145.097L129.142 144.331C127.944 150.35 122.093 154.257 116.075 153.058L115.309 156.904ZM132.989 145.097L135.542 132.277L131.696 131.511L129.142 144.331L132.989 145.097ZM134.002 129.971C126.921 128.56 122.325 121.677 123.735 114.597L119.889 113.831C118.056 123.036 124.031 131.984 133.236 133.817L134.002 129.971ZM123.735 114.597C125.145 107.516 132.028 102.92 139.109 104.33L139.875 100.484C130.67 98.6505 121.722 104.626 119.889 113.831L123.735 114.597ZM141.415 102.79L143.968 89.9694L140.122 89.2034L137.569 102.024L141.415 102.79ZM143.968 89.9694C145.59 81.8268 140.304 73.9112 132.161 72.2895L131.395 76.1356C137.413 77.3343 141.321 83.1849 140.122 89.2034L143.968 89.9694ZM132.161 72.2895L117.418 69.3531L116.652 73.1993L131.395 76.1356L132.161 72.2895ZM118.958 71.6592C120.791 62.4546 114.815 53.5067 105.61 51.6734L104.844 55.5196C111.925 56.9297 116.522 63.8127 115.111 70.8932L118.958 71.6592ZM105.61 51.6734C96.4058 49.8402 87.4578 55.8158 85.6245 65.0204L89.4706 65.7865C90.8808 58.706 97.7639 54.1094 104.844 55.5196L105.61 51.6734Z" fill="#D5D5DE" mask="url(#path-1-inside-1_385_301)"/>
<circle cx="81.2864" cy="90.1482" r="9.80417" transform="rotate(11.2639 81.2864 90.1482)" fill="white"/>
<circle cx="77.7698" cy="89.162" r="6.16262" transform="rotate(11.2639 77.7698 89.162)" fill="#D5D5DE"/>
<circle cx="102.715" cy="94.416" r="9.80417" transform="rotate(11.2639 102.715 94.416)" fill="white"/>
<circle cx="99.1981" cy="93.4299" r="6.16262" transform="rotate(11.2639 99.1981 93.4299)" fill="#D5D5DE"/>
<path d="M86 106H99" stroke="#D5D5DE" stroke-width="2" stroke-linecap="round" stroke-linejoin="round"/>
<rect x="5" y="24" width="63" height="23" rx="11.5" fill="#F3F3F6"/>
<path d="M53.7205 51.6601C54.1594 52.5468 53.1816 53.4643 52.3246 52.9699L38.2293 44.8387C37.6481 44.5035 37.5554 43.7024 38.0447 43.2433L44.9207 36.7911C45.41 36.332 46.2036 36.4754 46.5012 37.0766L53.7205 51.6601Z" fill="#F3F3F6"/>
<circle cx="23.3846" cy="35.3846" r="2.38462" fill="white"/>
<circle cx="36.1026" cy="35.3846" r="2.38462" fill="white"/>
<circle cx="49.6154" cy="35.3846" r="2.38462" fill="white"/>
</svg>
