<svg width="134" height="137" viewBox="0 0 134 137" fill="none" xmlns="http://www.w3.org/2000/svg">
<path fill-rule="evenodd" clip-rule="evenodd" d="M92.2501 12C84.4679 12 79.2858 17.5297 79.2858 23.0536C79.2858 26.3673 76.5995 29.0536 73.2858 29.0536C69.9721 29.0536 67.2858 26.3673 67.2858 23.0536C67.2858 9.73814 79.0679 0 92.2501 0C105.421 0 117.214 9.73641 117.214 23.0536C117.214 28.9541 115.058 34.4431 111.242 38.6013L111.24 38.6033C110.004 39.9494 108.636 41.2994 107.377 42.542C107.152 42.7634 106.931 42.9813 106.715 43.1952C105.224 44.6717 103.89 46.0243 102.743 47.3743C101.636 48.6761 100.862 49.7963 100.35 50.7824C105.712 51.6695 110.853 53.6811 115.425 56.715L115.444 56.7279L134.356 69.4909C137.103 71.3445 137.827 75.0739 135.973 77.8206C134.12 80.5674 130.39 81.2914 127.644 79.4377L108.771 66.7011C104.282 63.7274 98.9976 62.1815 93.6133 62.2671L93.5851 62.2676L93.5568 62.2677C88.2287 62.3023 83.0289 63.9513 78.6399 66.9913L15.301 111.532L15.2996 111.533C11.9492 113.891 11.4539 117.041 12.4588 119.659C13.5078 122.393 16.4296 125 21.2054 125H169.375C174.198 125 177.115 122.35 178.138 119.589C179.118 116.943 178.579 113.756 175.12 111.422L175.118 111.42L154.435 97.4949C151.686 95.6442 150.958 91.9156 152.809 89.1669C154.659 86.4181 158.388 85.6901 161.137 87.5408L181.829 101.472C190.029 107.004 192.23 116.094 189.391 123.757C186.595 131.306 179.132 137 169.375 137H21.2054C11.5526 137 4.11732 131.416 1.25559 123.959C-1.6501 116.388 0.390055 107.351 8.39561 101.718L71.7699 57.1523L71.7858 57.1413C76.5848 53.8125 82.0597 51.6268 87.7878 50.7296C88.6099 46.1758 91.175 42.4554 93.5989 39.6033C95.1111 37.824 96.77 36.1553 98.2727 34.6675C98.5179 34.4248 98.7578 34.1879 98.9929 33.9558C100.258 32.7065 101.382 31.5971 102.401 30.4879C104.156 28.5748 105.214 25.9924 105.214 23.0536C105.214 17.5314 100.025 12 92.2501 12Z" fill="#F3F3F6"/>
</svg>
